<?xml version="1.0" standalone="no"?>
<!DOCTYPE svg PUBLIC "-//W3C//DTD SVG 20010904//EN"
 "http://www.w3.org/TR/2001/REC-SVG-20010904/DTD/svg10.dtd">
<svg version="1.0" xmlns="http://www.w3.org/2000/svg"
 width="200.000000pt" height="200.000000pt" viewBox="0 0 200.000000 200.000000"
 preserveAspectRatio="xMidYMid meet">

<g transform="translate(0.000000,200.000000) scale(0.100000,-0.100000)"
fill="#000000" stroke="none">
<path d="M1184 1720 c-87 -35 -62 -170 31 -170 42 0 95 44 95 80 0 33 -26 75
-55 88 -30 14 -42 14 -71 2z"/>
<path d="M644 1545 c-30 -45 13 -99 61 -77 32 15 40 47 21 77 -22 33 -60 33
-82 0z"/>
<path d="M997 1480 c-170 -21 -326 -152 -388 -325 -31 -86 -38 -249 -14 -312
33 -86 97 -140 188 -157 l39 -7 -24 33 c-50 66 -61 113 -60 248 0 110 9 198
28 293 3 17 12 27 23 27 29 0 41 -22 41 -75 0 -142 72 -505 104 -527 22 -15
26 -7 26 47 0 30 2 55 5 55 3 0 40 -18 81 -39 99 -52 123 -43 44 15 -59 45
-110 98 -110 114 0 15 20 22 94 36 90 18 89 18 81 -5 -9 -31 11 -34 71 -12 65
25 107 27 124 6 15 -19 3 -34 -83 -106 -32 -27 -55 -49 -51 -49 4 0 44 18 89
39 63 31 96 55 147 109 138 147 166 310 74 435 -31 43 -101 84 -154 91 -26 4
-74 20 -107 36 -69 34 -157 44 -268 30z m-117 -119 c7 -15 6 -23 -6 -35 -8 -9
-17 -16 -19 -16 -2 0 -11 7 -19 16 -18 18 -6 54 19 54 8 0 19 -9 25 -19z m119
10 c12 -8 12 -23 -2 -110 -20 -121 -22 -181 -4 -181 16 0 52 57 78 123 57 144
71 168 98 165 18 -2 27 -10 29 -25 2 -11 -20 -87 -49 -167 -29 -80 -49 -149
-44 -154 7 -7 21 8 108 118 26 33 52 56 66 58 22 3 23 1 18 -30 -5 -34 -98
-194 -124 -215 -25 -19 -120 -27 -178 -14 -99 22 -135 92 -110 211 34 154 47
204 58 218 11 14 36 15 56 3z m404 -262 c28 -44 -25 -95 -72 -69 -24 12 -29
58 -9 78 17 17 68 11 81 -9z"/>
<path d="M940 1031 c-7 -15 -5 -24 8 -41 16 -19 22 -21 40 -11 24 13 29 40 10
59 -18 18 -46 14 -58 -7z"/>
</g>
</svg>
